<svg viewBox="0 0 74 64" fill="none" xmlns="http://www.w3.org/2000/svg">
    <path d="M57.7488 42.7282C60.6406 42.7282 62.448 39.6498 61.0021 37.1871L54.9292 26.8437C54.2582 25.7007 53.018 24.9966 51.6759 24.9966H22.324C20.982 24.9966 19.7418 25.7007 19.0708 26.8437L12.9979 37.1871C11.552 39.6498 13.3594 42.7282 16.2512 42.7282H57.7488Z" fill="#FFAC71"/>
    <path d="M33.7467 1.84704C35.1926 -0.615679 38.8074 -0.615682 40.2533 1.84704L48.4227 15.7614C49.8686 18.2241 48.0612 21.3026 45.1694 21.3026H28.8306C25.9388 21.3026 24.1314 18.2242 25.5773 15.7614L33.7467 1.84704Z" fill="#FFC195"/>
    <path d="M9.74465 46.4223C8.40255 46.4223 7.1624 47.1264 6.49135 48.2694L0.508893 58.4589C-0.937019 60.9216 0.870366 64 3.76218 64H45.0766C47.1513 64 48.8332 62.3461 48.8332 60.3059V50.1164C48.8332 48.0762 47.1513 46.4223 45.0766 46.4223H9.74465Z" fill="#FF9040"/>
    <path d="M56.3464 46.4223C54.2717 46.4223 52.5898 48.0762 52.5898 50.1164V60.3059C52.5898 62.3461 54.2717 64 56.3464 64H70.2378C73.1296 64 74.937 60.9216 73.4911 58.4589L67.5086 48.2694C66.8376 47.1264 65.5974 46.4223 64.2554 46.4223H56.3464Z" fill="#F98532"/>
</svg>
